<svg xmlns="http://www.w3.org/2000/svg" viewBox="0 0 120 120" role="img" aria-label=">">
  <g fill="none" stroke="#c0122a" stroke-width="2.2">
    <polygon points="60,8 96,29 96,71 60,92 24,71 24,29"/>
    <polygon points="60,16 90,33 90,67 60,84 30,67 30,33"/>
  </g>
  <g fill="#c0122a">
    <path d="M18 38c8-10 22-8 28 0 4 5 3 10-1 12-7-8-18-10-27-6z"/>
    <path d="M102 38c-8-10-22-8-28 0-4 5-3 10 1 12 7-8 18-10 27-6z"/>
    <path d="M22 78c10 8 24 6 30-2-8 2-16-2-22-10-4 4-8 8-8 12z"/>
    <path d="M98 78c-10 8-24 6-30-2 8 2 16-2 22-10 4 4 8 8 8 12z"/>
    <polygon points="60,42 68,50 60,70 52,50"/>
    <circle cx="60" cy="48" r="3.2"/>
  </g>
</svg>
